<svg xmlns="http://www.w3.org/2000/svg" width="798" height="752" viewBox="0 0 798 752" version="1.1">
	<path d="M 25.558 35.242 C 25.291 36.484, 24.635 190.038, 24.100 376.474 C 23.415 614.977, 23.440 715.826, 24.186 716.724 C 25.022 717.732, 37.384 718, 83.015 718 C 134.772 718, 140.849 717.835, 141.393 716.418 C 141.727 715.548, 142.011 661.661, 142.024 596.668 L 142.048 478.500 158.910 452 C 168.185 437.425, 176.064 425.500, 176.420 425.500 C 176.777 425.500, 207.173 490.930, 243.968 570.900 C 280.763 650.870, 311.460 716.676, 312.184 717.135 C 312.908 717.594, 341.977 717.976, 376.781 717.985 C 430.543 717.998, 440.145 717.786, 440.608 716.580 C 440.908 715.798, 398.526 624.561, 346.426 513.830 C 294.327 403.098, 251.273 311.375, 250.751 310 C 249.898 307.752, 258.391 293.799, 334.996 171.585 C 381.853 96.831, 420.420 35.069, 420.702 34.335 C 421.125 33.231, 410.907 33, 361.663 33 L 302.112 33 299.640 35.250 C 298.280 36.487, 264.885 86.550, 225.428 146.500 C 185.971 206.450, 151.395 258.875, 148.594 263 L 143.500 270.500 143 152 L 142.500 33.500 84.271 33.242 L 26.042 32.984 25.558 35.242 M 658.729 34.226 C 657.113 35.424, 656.995 50.673, 656.753 289 L 656.496 542.500 654.260 549.695 C 649.103 566.287, 641.433 578.622, 628.998 590.320 C 620.624 598.198, 613.356 602.544, 602.500 606.165 C 596.469 608.177, 593.631 608.488, 582 608.411 C 570.241 608.334, 567.458 607.981, 560.422 605.672 C 537.222 598.060, 520.204 578.783, 512.952 551.900 C 510.879 544.216, 510.649 540.796, 510.249 511.794 C 509.919 487.845, 509.502 479.831, 508.544 479.036 C 507.680 478.320, 488.805 478.066, 449.388 478.242 L 391.500 478.500 391.542 515 C 391.587 554.115, 392.198 561.021, 397.476 582 C 420.744 674.488, 502.474 733.755, 597.395 726.972 C 642.783 723.728, 680.334 706.359, 714.079 673 C 746.380 641.068, 765.996 603.480, 773.741 558.674 C 775.393 549.116, 775.484 532.962, 775.231 292.031 C 775.048 117.738, 774.631 35.231, 773.931 34.531 C 772.282 32.881, 660.941 32.586, 658.729 34.226" stroke="none" fill="#000000" fill-rule="evenodd"/>
</svg>