<?xml version="1.0" standalone="no"?>
<!DOCTYPE svg PUBLIC "-//W3C//DTD SVG 20010904//EN"
 "http://www.w3.org/TR/2001/REC-SVG-20010904/DTD/svg10.dtd">
<svg version="1.0" xmlns="http://www.w3.org/2000/svg"
 width="300.000000pt" height="283.000000pt" viewBox="0 0 300.000000 283.000000"
 preserveAspectRatio="xMidYMid meet">
<metadata>
Created by potrace 1.10, written by Peter Selinger 2001-2011
</metadata>
<g transform="translate(0.000000,283.000000) scale(0.100000,-0.100000)"
fill="#000000" stroke="none">
<path d="M97 2704 c-4 -4 -7 -585 -7 -1291 l0 -1283 223 2 222 3 2 451 2 451
62 97 c34 53 63 95 64 94 1 -2 64 -136 138 -298 75 -162 187 -407 251 -545
l115 -250 245 -3 c135 -1 246 -1 246 1 0 2 -42 94 -94 203 -52 109 -202 429
-334 709 -132 281 -252 536 -267 567 l-27 58 42 67 c265 421 592 947 597 958
4 13 -27 15 -214 15 -160 0 -223 -3 -235 -12 -9 -7 -36 -44 -61 -83 -24 -38
-147 -225 -272 -415 -125 -190 -232 -355 -238 -367 -6 -13 -13 -23 -16 -23 -3
0 -6 201 -6 447 l0 448 -216 3 c-118 1 -218 -1 -222 -4z m393 -53 c6 -13 10
-163 10 -418 0 -388 1 -400 20 -421 12 -12 24 -22 29 -22 19 0 76 80 325 458
195 296 272 405 291 412 15 6 94 10 176 10 116 0 151 -3 155 -14 4 -10 -199
-345 -401 -661 -162 -252 -185 -294 -185 -331 0 -14 65 -164 144 -333 79 -168
232 -494 340 -723 108 -230 196 -422 196 -428 0 -16 -385 -13 -397 3 -5 6
-103 217 -218 467 -250 547 -269 586 -295 600 -29 16 -51 -3 -109 -91 -85
-128 -80 -96 -81 -560 0 -227 -4 -417 -8 -421 -5 -5 -85 -7 -178 -6 l-169 3
-3 1228 c-1 835 1 1234 8 1248 10 18 23 19 175 19 152 0 165 -1 175 -19z"/>
<path d="M2474 2695 c-2 -5 -5 -442 -6 -970 l-3 -960 -28 -57 c-35 -72 -110
-141 -171 -158 -135 -38 -276 34 -326 166 -16 45 -20 78 -20 184 l0 130 -226
0 -226 0 5 -167 c5 -194 22 -268 90 -398 61 -117 183 -237 297 -293 99 -49
173 -69 279 -78 335 -28 644 197 753 548 l23 73 1 988 c0 544 -4 991 -8 993
-16 10 -431 9 -434 -1z m399 -885 c8 -891 6 -1049 -17 -1143 -59 -239 -264
-451 -497 -514 -85 -23 -251 -22 -339 1 -202 52 -349 177 -441 371 -50 108
-70 212 -67 350 l3 110 174 3 c133 2 176 -1 183 -10 4 -7 8 -56 8 -109 0 -62
6 -113 17 -145 32 -97 108 -179 193 -209 51 -18 144 -20 191 -4 55 19 125 76
162 132 70 105 67 59 67 1082 0 507 3 925 7 929 4 3 84 5 177 4 l171 -3 8
-845z"/>
</g>
</svg>
